<svg width="372" height="287" viewBox="0 0 372 287" fill="none" xmlns="http://www.w3.org/2000/svg">
<path d="M0 56L371.241 136.435L0 216.871V56Z" fill="#FEBD2F"/>
<path d="M126.166 182.88V133.453H187.746C195.579 133.453 202.736 131.833 209.219 128.592C215.701 125.351 220.833 120.624 224.614 114.412C228.395 108.2 230.286 100.637 230.286 91.7243C230.286 83.0814 228.395 75.6539 224.614 69.4418C220.833 63.2297 215.701 58.5031 209.219 55.262C202.736 52.0209 195.579 50.4003 187.746 50.4003H126.166V0.973723H197.064C215.161 0.973723 231.501 4.61995 246.086 11.9124C260.671 19.2049 272.15 29.7384 280.523 43.513C289.165 57.0176 293.487 73.088 293.487 91.7243C293.487 110.361 289.165 126.566 280.523 140.341C272.15 153.845 260.671 164.379 246.086 171.941C231.501 179.234 215.161 182.88 197.064 182.88H126.166ZM77.5493 287V0.973723H141.156V287H77.5493Z" fill="#112351"/>
</svg>
