<svg width="355" height="172" viewBox="0 0 355 172" fill="none" xmlns="http://www.w3.org/2000/svg">
<path d="M0 0L343.548 74.4355L0 148.871V0Z" fill="#FEBD2F"/>
<path d="M25.8348 101.683V84.9181H46.7226C49.3794 84.9181 51.8071 84.3684 54.0058 83.269C56.2045 82.1697 57.9452 80.5664 59.2277 78.4593C60.5103 76.3523 61.1516 73.7871 61.1516 70.7639C61.1516 67.8323 60.5103 65.3129 59.2277 63.2058C57.9452 61.0987 56.2045 59.4955 54.0058 58.3961C51.8071 57.2968 49.3794 56.7471 46.7226 56.7471H25.8348V39.9819H49.8832C56.0213 39.9819 61.5639 41.2187 66.511 43.6923C71.4581 46.1658 75.3516 49.7387 78.1916 54.411C81.1232 58.9916 82.589 64.4426 82.589 70.7639C82.589 77.0852 81.1232 82.5819 78.1916 87.2542C75.3516 91.8348 71.4581 95.4077 66.511 97.9729C61.5639 100.446 56.0213 101.683 49.8832 101.683H25.8348ZM9.34452 137V39.9819H30.9194V137H9.34452ZM93.7103 137V70.2142H114.736V137H93.7103ZM104.292 61.0071C100.994 61.0071 98.2452 59.9077 96.0465 57.709C93.9394 55.4187 92.8858 52.6703 92.8858 49.4639C92.8858 46.1658 93.9394 43.4174 96.0465 41.2187C98.2452 39.02 100.994 37.9206 104.292 37.9206C107.59 37.9206 110.292 39.02 112.399 41.2187C114.506 43.4174 115.56 46.1658 115.56 49.4639C115.56 52.6703 114.506 55.4187 112.399 57.709C110.292 59.9077 107.59 61.0071 104.292 61.0071ZM125.281 124.632L158.812 82.4445H184.372L150.841 124.632H125.281ZM125.281 137V124.632L140.26 119.41H183.547V137H125.281ZM127.755 87.8039V70.2142H184.372V82.4445L169.53 87.8039H127.755ZM192.403 121.884L241.187 54.9606H267.297L218.375 121.884H192.403ZM192.403 137V121.884L206.695 118.448H266.06V137H192.403ZM195.152 58.5335V39.9819H267.297V54.9606L252.73 58.5335H195.152ZM308.377 138.512C301.506 138.512 295.276 137 289.688 133.977C284.191 130.862 279.839 126.648 276.633 121.334C273.426 116.021 271.823 110.066 271.823 103.47C271.823 96.8735 273.426 90.9645 276.633 85.7426C279.839 80.5206 284.191 76.3981 289.688 73.3748C295.184 70.26 301.414 68.7026 308.377 68.7026C315.339 68.7026 321.569 70.2142 327.066 73.2374C332.562 76.2606 336.914 80.429 340.12 85.7426C343.327 90.9645 344.93 96.8735 344.93 103.47C344.93 110.066 343.327 116.021 340.12 121.334C336.914 126.648 332.562 130.862 327.066 133.977C321.569 137 315.339 138.512 308.377 138.512ZM308.377 119.41C311.4 119.41 314.057 118.769 316.347 117.486C318.637 116.112 320.378 114.234 321.569 111.852C322.851 109.379 323.493 106.585 323.493 103.47C323.493 100.355 322.851 97.6523 321.569 95.3619C320.286 92.98 318.5 91.1477 316.209 89.8652C314.011 88.491 311.4 87.8039 308.377 87.8039C305.445 87.8039 302.834 88.491 300.544 89.8652C298.253 91.1477 296.467 92.98 295.184 95.3619C293.902 97.7439 293.26 100.492 293.26 103.607C293.26 106.63 293.902 109.379 295.184 111.852C296.467 114.234 298.253 116.112 300.544 117.486C302.834 118.769 305.445 119.41 308.377 119.41Z" fill="#112351"/>
</svg>
