      <svg width="178" height="138" viewBox="0 0 178 138" fill="none" xmlns="http://www.w3.org/2000/svg">
               <path d="M149.159 75.9956L164.014 33.6292L174.685 37.197L159.934 79.2385L149.159 75.9956Z" fill="#FC6B55"/>
               <path d="M87.9444 29.8977C87.6847 30.1343 87.452 30.423 87.3805 30.7756C87.3082 31.1322 87.3824 31.4878 87.5283 31.8155C87.8108 32.4497 88.3554 32.9278 88.8811 33.3594C89.3723 33.7627 90.0433 34.205 90.2948 34.8141C90.398 35.0641 90.4068 35.4252 90.1258 35.561C89.8459 35.6962 89.4454 35.6579 89.1454 35.643C88.3135 35.6019 87.5088 35.3396 86.7995 34.9066C86.4141 34.6714 86.0621 35.2763 86.4463 35.5108C87.1232 35.924 87.8767 36.1917 88.6626 36.2968C89.3304 36.3861 90.3354 36.4864 90.8068 35.89C91.3397 35.2157 90.9456 34.3702 90.4432 33.8159C89.9576 33.2801 89.3456 32.8823 88.8242 32.3848C88.5433 32.1167 88.2634 31.8082 88.125 31.4389C87.9619 31.0034 88.1116 30.6909 88.4392 30.3925C88.7728 30.0886 88.2768 29.5948 87.9444 29.8977V29.8977Z" fill="#1A202C"/>
               <path d="M161.623 137.257L113.109 116.266V68.4514L161.623 89.443V137.257Z" fill="#333333"/>
               <rect x="51.418" y="68.4514" width="61.692" height="47.8142" fill="#333333"/>
               <path d="M76.6428 84.1442L74.917 74.2825H101.051L104.132 93.5129" fill="white"/>
               <path d="M125.705 94.4577L128.737 68.4514L142.737 70.6775L139.933 97.3732" fill="#FEBD2F"/>
               <path d="M109.145 85.3568L111.333 66.5862L121.438 68.1929L119.414 87.4612" fill="#FC6B55"/>
               <path d="M87.2444 87.1032L85.5186 77.2415H111.652L114.734 96.4719" fill="#FEBD2F"/>
               <path d="M98.216 90.5553L96.4902 80.6936H122.624L125.706 99.924" fill="white"/>
               <rect x="99.9316" y="89.4435" width="61.692" height="47.8142" fill="#FEBD2F"/>
               <path d="M173.169 105.304H111.477L99.9316 89.4435H161.624L173.169 105.304Z" fill="#FC6B55"/>
               <path d="M99.9319 137.257L51.418 116.266V68.4514L99.9319 89.443V137.257Z" fill="#FEBD2F"/>
               <path d="M85.5872 102.854L37.0732 81.8627L51.4175 68.4514L99.9314 89.443L85.5872 102.854Z" fill="#FC6B55"/>
               <path d="M70.4158 43.1836C74.3793 46.8448 80.3707 47.5575 85.248 45.4184C90.065 43.3057 93.5242 38.7451 94.8001 33.7067C96.1625 28.3269 95.6994 22.3456 94.0534 17.0799C93.343 14.8074 92.2427 12.6835 90.5218 11.0093C88.868 9.40027 86.7797 8.31334 84.5659 7.70005C80.3191 6.52349 75.561 6.70422 71.4902 8.4259C67.939 9.92779 65.032 12.545 62.7509 15.6163C60.4961 18.6522 58.8471 22.1116 57.5672 25.6583C56.9756 27.2975 56.4658 28.966 56.0257 30.6521C55.4819 32.7357 55.0701 34.7456 53.7861 36.538C52.2665 38.6591 50.0835 39.9714 47.6086 40.6791C44.9485 41.4398 42.3457 42.3884 39.8087 43.4914C34.6516 45.7336 29.7929 48.6455 25.3332 52.0674C16.2604 59.0291 8.44273 68.1819 4.00267 78.789C-0.316846 89.1081 -1.42777 101.13 3.05101 111.589C6.79382 120.328 14.1317 127.161 22.8264 130.865C27.243 132.747 31.9698 133.844 36.7629 134.116C43.1395 134.477 49.5596 133.405 55.6821 131.68C58.889 130.776 62.05 129.691 65.1483 128.467C66.5644 127.907 67.9397 127.21 69.4249 126.845C71.0623 126.442 72.5443 126.801 74.1216 127.277C75.6666 127.744 77.182 128.304 78.7382 128.734C80.387 129.189 82.0333 129.654 83.6805 130.116C84.4682 130.336 85.256 130.557 86.0438 130.778C86.7506 130.976 87.4726 131.251 88.2158 131.246C89.3467 131.237 90.4233 130.662 91.0689 129.736C92.4523 127.752 91.3698 125.072 89.1328 124.376L88.8538 125.388C90.7008 125.848 92.641 124.83 93.1644 122.959C93.6884 121.086 92.5507 119.214 90.7351 118.649L90.4561 119.661C92.3031 120.12 94.2433 119.102 94.7666 117.231C95.2906 115.358 94.153 113.486 92.3374 112.921L92.0584 113.933C93.5327 114.299 95.084 113.76 95.9306 112.473C96.7709 111.195 96.6279 109.498 95.6606 108.334C94.7722 107.265 93.3886 107.039 92.1228 106.685C88.2093 105.59 84.2958 104.495 80.3823 103.401C79.3112 103.101 78.2424 102.791 77.1674 102.505C73.031 101.407 68.7193 100.948 64.4442 101.134C60.2905 101.314 56.3038 102.313 52.2281 103.03C48.3252 103.717 44.3367 103.858 40.5566 102.502C37.3238 101.343 34.4219 99.115 33.0119 95.9203C31.6875 92.9197 31.5302 89.2389 32.76 86.1829C33.0629 85.4302 33.4704 84.7263 33.9532 84.0754C34.3559 83.5325 33.4453 83.0086 33.047 83.5456C29.207 88.7225 30.6252 96.8266 35.4771 100.83C38.0746 102.973 41.3527 104.148 44.6786 104.501C48.7281 104.93 52.7287 104.017 56.6734 103.221C60.8292 102.382 64.9942 101.95 69.235 102.245C72.1659 102.449 75.0379 102.996 77.8643 103.786C81.3724 104.768 84.8805 105.749 88.3886 106.73C89.9279 107.161 91.4671 107.592 93.0064 108.022C93.4112 108.135 93.8268 108.228 94.1926 108.443C95.6442 109.296 95.8747 111.384 94.5452 112.466C93.92 112.974 93.1087 113.112 92.3374 112.921C91.6802 112.758 91.4136 113.732 92.0583 113.933C93.3354 114.33 94.1197 115.639 93.7545 116.952C93.3886 118.268 92.0281 118.97 90.7351 118.649C90.078 118.485 89.8114 119.46 90.4561 119.661C91.7331 120.058 92.5174 121.367 92.1522 122.68C91.7863 123.996 90.4258 124.698 89.1328 124.376C88.4757 124.213 88.2091 125.188 88.8538 125.388C90.0294 125.754 90.8141 126.897 90.6097 128.138C90.4125 129.335 89.3433 130.222 88.1312 130.194C87.4485 130.178 86.7388 129.882 86.0864 129.699C85.2199 129.457 84.3533 129.214 83.4868 128.971C81.9252 128.534 80.362 128.102 78.801 127.662C77.3192 127.245 75.8738 126.71 74.4006 126.265C73.0062 125.844 71.602 125.459 70.1355 125.648C68.7292 125.829 67.4186 126.384 66.1237 126.934C64.6653 127.553 63.1827 128.112 61.6913 128.646C50.9659 132.49 39.2412 134.769 28.0493 131.603C19.3326 129.138 11.4478 123.666 6.55664 115.983C0.883136 107.071 0.0511273 96.12 2.66016 86.0299C5.49675 75.0598 12.1268 65.4375 20.2978 57.7242C28.1482 50.3135 37.6713 44.5999 48.0785 41.6369C50.3766 40.9826 52.4539 39.7608 54.016 37.9327C55.4894 36.2084 56.2263 34.2482 56.7505 32.0751C57.5297 28.8452 58.5469 25.6558 59.9156 22.6252C62.9584 15.8873 68.0257 9.6137 75.6876 8.28002C79.9513 7.53785 84.964 8.13587 88.5406 10.7071C92.6501 13.6614 93.8829 19.0988 94.3502 23.8602C94.8652 29.108 94.2935 34.697 91.2037 39.1209C88.2116 43.4049 83.2069 46.1186 77.924 45.492C75.4187 45.1948 73.0158 44.1576 71.1579 42.4414C70.6623 41.9836 69.9183 42.724 70.4157 43.1836L70.4158 43.1836Z" fill="#1A202C"/>
               <path d="M88.5623 43.9942C93.146 44.7518 96.8872 47.6598 99.9386 51.0188C101.543 52.785 102.965 54.6981 104.38 56.6163C105.886 58.6579 107.279 60.7434 108.394 63.0261C108.636 63.5212 108.866 64.0227 109.036 64.5478C109.165 64.9481 109.342 65.4764 109.189 65.8941C108.98 66.4606 107.882 67.3601 107.464 66.5718C107.437 66.7838 107.41 66.9958 107.382 67.2078C111.818 63.1049 116.254 59.0021 120.689 54.8993C124.773 51.1221 128.859 47.2908 133.524 44.2287C137.976 41.3069 143.046 39.0651 148.404 38.6311C153.821 38.1924 159 39.8697 163.828 42.1885C166.257 43.3551 168.614 44.6615 170.982 45.9456C172.01 46.5033 172.975 47.0945 173.819 47.9129C174.587 48.6573 175.231 49.5131 175.736 50.4557C176.752 52.3508 177.156 54.5803 176.836 56.7101C176.464 59.1881 175.372 61.552 174.255 63.7688C173.186 65.8921 172.058 67.9897 170.812 70.015C170.301 70.8451 169.799 71.6806 169.094 72.3631C168.328 73.1045 167.388 73.6637 166.37 73.981C165.375 74.291 164.31 74.3846 163.278 74.2243C163.028 74.1854 162.779 74.1309 162.534 74.0651C162.41 74.0318 162.287 73.9953 162.165 73.9556C162.099 73.9344 161.725 73.7983 161.945 73.8871C161.901 73.8692 161.857 73.8487 161.814 73.8296C161.036 73.4906 160.259 73.1513 159.481 72.8121C156.911 71.691 154.341 70.5699 151.771 69.4488C151.102 69.1567 150.43 68.8683 149.762 68.5725C149.103 68.2807 148.56 67.834 148.275 67.1551C147.882 66.2212 148.111 65.1405 148.845 64.4443C149.571 63.7567 150.597 63.6333 151.508 63.9843C152.058 64.196 152.459 63.2614 151.913 63.0251C150.665 62.4849 149.975 61.1068 150.503 59.8031C151.031 58.5016 152.493 57.9908 153.76 58.4794C154.31 58.6913 154.71 57.7565 154.164 57.5202C152.916 56.98 152.226 55.6019 152.755 54.2981C153.282 52.9967 154.745 52.4859 156.012 52.9745C156.561 53.1863 156.962 52.2515 156.416 52.0153C155.267 51.5178 154.575 50.3194 154.913 49.0747C155.235 47.891 156.433 47.1013 157.649 47.2925C158.452 47.4188 159.245 47.8715 159.992 48.1773C160.83 48.5205 161.668 48.8637 162.507 49.2069C164.204 49.9018 165.922 50.5592 167.595 51.3093C169.376 52.1074 171.12 53.0022 172.979 53.6085C173.623 53.8184 173.899 52.8053 173.258 52.5964C171.381 51.9843 169.63 51.064 167.827 50.2706C165.951 49.445 164.034 48.7059 162.137 47.9292C161.163 47.5306 160.19 47.132 159.216 46.7335C158.459 46.4235 157.749 46.1451 156.915 46.239C155.46 46.4028 154.202 47.4693 153.872 48.9118C153.498 50.5452 154.345 52.2542 155.886 52.9216C156.021 52.6018 156.156 52.2821 156.291 51.9624C154.531 51.2839 152.514 52.1515 151.793 53.8928C151.074 55.6313 151.91 57.68 153.635 58.4265C153.77 58.1067 153.904 57.787 154.039 57.4673C152.28 56.7888 150.262 57.6564 149.542 59.3977C148.823 61.1362 149.659 63.1849 151.383 63.9314C151.518 63.6116 151.653 63.2919 151.787 62.9722C149.624 62.1387 147.221 63.659 147.04 65.9675C146.913 67.5874 147.965 68.9259 149.389 69.5469C151.683 70.5476 153.977 71.5484 156.271 72.5491C157.526 73.0965 158.781 73.6439 160.036 74.1913C160.723 74.491 161.409 74.8356 162.131 75.0429C164.304 75.6666 166.713 75.3089 168.609 74.0788C170.44 72.8913 171.492 70.9753 172.56 69.1348C173.935 66.7649 175.268 64.323 176.341 61.8008C177.296 59.5581 178.106 57.1493 177.974 54.6801C177.852 52.41 177.04 50.2065 175.654 48.4045C174.951 47.4895 174.119 46.6939 173.176 46.0275C172.092 45.2612 170.864 44.686 169.699 44.0541C164.79 41.3913 159.697 38.7017 154.117 37.8184C148.519 36.9322 142.931 38.1446 137.859 40.5625C132.624 43.0586 128.083 46.7663 123.798 50.6239C119.174 54.7861 114.647 59.0591 110.081 63.2833C108.934 64.3441 107.787 65.4048 106.64 66.4655C106.465 66.6279 106.452 66.9007 106.558 67.1015C107.073 68.0727 108.165 68.1205 109.025 67.5711C109.849 67.045 110.381 66.2323 110.264 65.2362C110.137 64.1522 109.62 63.1354 109.139 62.1706C108.511 60.9105 107.809 59.7019 107.024 58.5329C105.475 56.228 103.797 53.9718 102.027 51.8321C100.394 49.8587 98.6049 48.0103 96.5607 46.4598C94.2868 44.7351 91.6718 43.4499 88.8414 42.9821C88.1806 42.8729 87.8965 43.8841 88.5624 43.9941L88.5623 43.9942Z" fill="#1A202C"/>
               <path d="M93.0595 113.103C91.7909 112.765 90.5223 112.426 89.2536 112.088C87.24 111.55 85.2263 111.013 83.2127 110.476C82.7485 110.352 82.2842 110.228 81.82 110.104C81.1667 109.93 80.888 110.942 81.541 111.116C82.8096 111.455 84.0782 111.793 85.3469 112.132C87.3605 112.669 89.3742 113.206 91.3878 113.744C91.852 113.867 92.3162 113.991 92.7805 114.115C93.4338 114.29 93.7125 113.277 93.0595 113.103Z" fill="#1A202C"/>
               <path d="M91.4267 118.817C90.1581 118.479 88.8894 118.14 87.6208 117.802C85.6072 117.265 83.5935 116.727 81.5799 116.19C81.1156 116.066 80.6514 115.942 80.1872 115.818C79.5339 115.644 79.2552 116.656 79.9082 116.831C81.1768 117.169 82.4454 117.507 83.714 117.846C85.7277 118.383 87.7413 118.92 89.755 119.458C90.2192 119.582 90.6834 119.705 91.1476 119.829C91.801 120.004 92.0797 118.991 91.4267 118.817Z" fill="#1A202C"/>
               <path d="M90.0273 124.648C88.7586 124.31 87.49 123.971 86.2214 123.633C84.2078 123.095 82.1941 122.558 80.1804 122.021C79.7162 121.897 79.252 121.773 78.7878 121.649C78.1345 121.475 77.8558 122.487 78.5088 122.661C79.7774 123 81.046 123.338 82.3146 123.677C84.3283 124.214 86.3419 124.751 88.3556 125.289C88.8198 125.412 89.284 125.536 89.7482 125.66C90.4016 125.834 90.6803 124.822 90.0273 124.648Z" fill="#1A202C"/>
               <path d="M99.466 94.5167C99.4517 95.136 99.4518 95.7559 99.4493 96.3753C99.4448 97.4963 99.4439 98.6173 99.4435 99.7382C99.443 101.239 99.4441 102.74 99.4458 104.241C99.4478 106 99.4506 107.759 99.4537 109.518C99.4571 111.413 99.4608 113.309 99.4645 115.204C99.4683 117.115 99.4722 119.026 99.4757 120.936C99.479 122.74 99.4822 124.544 99.4846 126.348C99.4867 127.924 99.4883 129.5 99.4885 131.076C99.4887 132.306 99.4883 133.537 99.4849 134.767C99.4828 135.517 99.4815 136.267 99.4712 137.017C99.4698 137.117 99.4682 137.217 99.466 137.316C99.4504 137.992 100.5 137.992 100.516 137.316C100.53 136.697 100.53 136.077 100.532 135.458C100.537 134.337 100.538 133.216 100.538 132.095C100.539 130.594 100.537 129.093 100.536 127.592C100.534 125.833 100.531 124.074 100.528 122.315C100.524 120.42 100.521 118.524 100.517 116.628C100.513 114.718 100.509 112.807 100.506 110.897C100.502 109.093 100.499 107.289 100.497 105.485C100.495 103.909 100.493 102.333 100.493 100.757C100.493 99.5268 100.493 98.2963 100.497 97.0659C100.499 96.3158 100.5 95.5656 100.51 94.8156C100.512 94.7159 100.513 94.6163 100.516 94.5167C100.531 93.841 99.4815 93.8412 99.466 94.5167Z" fill="#FC6B55"/>
               <path d="M152.704 42.5406C153.694 43.1644 154.74 43.7045 155.783 44.2344C156.43 44.5629 157.081 44.8831 157.735 45.1962C158.078 45.3604 158.422 45.5225 158.767 45.6826C159.025 45.8022 159.219 45.9073 159.398 46.1264C159.712 46.5111 159.759 47.0199 159.557 47.5038C159.447 47.7654 159.675 48.0811 159.923 48.1494C160.226 48.2325 160.459 48.0454 160.569 47.7829C160.817 47.1895 160.762 46.5049 160.499 45.9284C160.202 45.278 159.651 44.9424 159.03 44.6522C157.652 44.0075 156.285 43.3347 154.944 42.6144C154.365 42.3034 153.79 41.9845 153.233 41.6343C152.66 41.2733 152.133 42.1812 152.704 42.5406Z" fill="#1A202C"/>
               <path d="M154.37 50.5794C153.542 50.0256 152.627 49.6056 151.67 49.3286C151.389 49.2473 151.11 49.4277 151.025 49.6951C150.231 52.1661 148.638 54.3968 146.553 55.9452C145.946 56.3956 145.301 56.7909 144.626 57.1294C144.372 57.2563 144.301 57.614 144.437 57.8474C144.588 58.1053 144.901 58.163 145.155 58.0356C147.67 56.7757 149.774 54.6998 151.092 52.2165C151.472 51.4997 151.789 50.7466 152.037 49.9741L151.391 50.3407C152.267 50.594 153.083 50.9792 153.84 51.4857C154.076 51.6433 154.421 51.5316 154.558 51.2974C154.709 51.0399 154.606 50.7374 154.37 50.5794H154.37Z" fill="#1A202C"/>
               <path d="M155.47 52.7534C156.458 53.175 157.446 53.5966 158.434 54.0182C160.001 54.6866 161.567 55.355 163.134 56.0234C163.495 56.1774 163.856 56.3313 164.216 56.4853C164.477 56.5964 164.779 56.5631 164.934 56.297C165.064 56.0764 165.008 55.6909 164.746 55.579C163.758 55.1574 162.77 54.7358 161.782 54.3142C160.215 53.6459 158.649 52.9775 157.082 52.3091C156.721 52.1551 156.361 52.0011 156 51.8472C155.739 51.736 155.437 51.7694 155.282 52.0354C155.153 52.2561 155.208 52.6416 155.47 52.7534Z" fill="#1A202C"/>
               <path d="M153.021 58.2339C154.009 58.6555 154.997 59.0771 155.985 59.4987C157.552 60.1671 159.118 60.8355 160.685 61.5039C161.046 61.6578 161.406 61.8118 161.767 61.9658C162.028 62.0769 162.33 62.0436 162.485 61.7775C162.614 61.5568 162.559 61.1713 162.297 61.0595C161.309 60.6379 160.321 60.2163 159.333 59.7947C157.766 59.1263 156.2 58.4579 154.633 57.7895C154.272 57.6356 153.911 57.4816 153.55 57.3276C153.29 57.2165 152.988 57.2498 152.832 57.5159C152.703 57.7366 152.759 58.1221 153.021 58.2339Z" fill="#1A202C"/>
               <path d="M150.689 63.7154C151.677 64.137 152.665 64.5585 153.653 64.9802C155.22 65.6485 156.786 66.3169 158.353 66.9853C158.713 67.1393 159.074 67.2932 159.435 67.4472C159.696 67.5583 159.998 67.525 160.153 67.2589C160.282 67.0383 160.227 66.6528 159.965 66.5409C158.977 66.1193 157.989 65.6978 157.001 65.2761C155.434 64.6078 153.868 63.9394 152.301 63.271C151.94 63.117 151.579 62.9631 151.218 62.8091C150.958 62.698 150.656 62.7313 150.5 62.9974C150.371 63.218 150.427 63.6035 150.689 63.7154Z" fill="#1A202C"/>
               <path d="M88.9673 63.4449C90.0597 65.4077 90.9934 67.4529 91.7539 69.5666C91.8498 69.8331 92.1112 70.0123 92.3995 69.9331C92.657 69.8623 92.8624 69.5555 92.766 69.2875C91.9752 67.0898 91.0095 64.9562 89.8736 62.9152C89.545 62.3249 88.6382 62.8536 88.9673 63.4449V63.4449Z" fill="#1A202C"/>
               <path d="M93.2646 22.0023C92.2383 23.1983 90.8256 24.02 89.1848 23.7748C87.6284 23.5422 86.2599 22.3393 85.8296 20.8255C85.1643 22.3401 83.4322 23.3081 81.7935 23.081C80.1548 22.854 78.7512 21.4515 78.5228 19.813C77.4907 19.3967 76.2711 19.8605 75.4859 20.6492C74.7007 21.4379 74.2562 22.4942 73.8301 23.5223C73.2302 24.9698 72.668 26.5069 71.9936 27.8871C71.9834 26.4376 71.8814 24.9045 71.3607 23.5392C70.8758 22.2676 69.9076 21.1045 68.5968 20.7387C66.8438 20.2496 64.9912 21.302 63.8144 22.6903C63.2508 23.355 62.7802 24.1156 62.5577 24.9582C62.1803 26.3876 62.5531 27.9293 63.2456 29.2353C63.7068 30.1052 64.3103 30.8983 65.0211 31.5793C65.624 32.157 66.9255 32.6826 67.2315 33.3946C67.6614 34.3946 67.3886 37.0289 67.3764 38.2277C67.365 39.3528 65.4739 51.5962 66.1395 51.6328C62.1639 51.4146 58.376 49.7515 55.0878 47.5064C52.59 45.8009 49.4164 43.5598 47.7043 41.0382C47.2862 40.4223 46.9201 39.691 47.0658 38.961C47.2634 37.9702 48.2486 37.401 48.7704 36.5994C49.2447 35.8709 49.7178 34.8223 49.9914 33.9953C50.4134 32.7198 50.4912 31.3611 50.6243 30.0242C51.3679 22.5525 53.7695 13.5547 59.4023 8.26217C63.7748 4.1539 69.5638 1.60861 75.5377 1.05308C81.0678 0.538795 87.5365 1.43139 91.8956 5.03772C95.9649 8.40423 98.6217 13.4566 99.0067 18.7313C99.2928 22.6512 96.2602 25.0721 93.2646 22.0023L93.2646 22.0023Z" fill="#1A202C"/>
               <path d="M92.8934 21.6312C91.9678 22.6973 90.6426 23.5224 89.1765 23.2437C87.846 22.9908 86.7194 21.9873 86.3355 20.6859C86.2185 20.2894 85.5716 20.1288 85.3763 20.5606C84.7798 21.8799 83.3238 22.7701 81.8632 22.5648C80.3985 22.359 79.2447 21.1102 79.0286 19.6734C79.0005 19.4865 78.8211 19.3676 78.6621 19.3069C77.2252 18.7587 75.643 19.5585 74.7491 20.6935C73.7625 21.9461 73.2565 23.5385 72.6706 25.002C72.3169 25.8855 71.9563 26.7659 71.5403 27.6222C71.8662 27.7105 72.1922 27.7987 72.5182 27.887C72.4995 25.6557 72.2755 23.1731 70.6857 21.4563C69.9715 20.685 69.0179 20.185 67.9658 20.1026C66.9107 20.0198 65.8417 20.4029 64.9689 20.9749C63.1113 22.1921 61.7046 24.3261 61.9031 26.6064C62.0047 27.772 62.4152 28.8883 63.0116 29.8901C63.5606 30.8123 64.2708 31.7279 65.1542 32.3509C65.5292 32.6154 65.9344 32.8382 66.2987 33.118C66.4339 33.2219 66.5747 33.3414 66.6786 33.4778C66.6539 33.4454 66.7895 33.6815 66.7415 33.5733C66.7724 33.643 66.7927 33.7189 66.8125 33.7924C66.9105 34.1574 66.9223 34.4289 66.9379 34.8256C66.9555 35.2727 66.9483 35.7206 66.9339 36.1677C66.9028 37.1314 66.8855 38.1009 66.7754 39.0594C66.5039 41.4226 66.1615 43.7773 65.883 46.1398C65.7418 47.3371 65.6052 48.5365 65.5213 49.7395C65.4931 50.1433 65.4684 50.5489 65.4731 50.9539C65.4764 51.2406 65.4741 51.572 65.6157 51.8304C65.7292 52.0375 65.909 52.1328 66.1394 52.1575V51.1079C61.9218 50.8648 58.1228 48.9706 54.7042 46.6082C53.0807 45.4863 51.4775 44.3174 50.0509 42.9485C49.3762 42.301 48.7329 41.6086 48.2011 40.8373C47.9247 40.4363 47.6446 39.9931 47.5708 39.502C47.5085 39.0874 47.6632 38.718 47.9044 38.3897C48.1422 38.066 48.4486 37.7936 48.7195 37.4983C49.0327 37.1567 49.2894 36.7827 49.5145 36.3783C50.016 35.4771 50.4353 34.4936 50.6814 33.4906C50.9522 32.3873 51.0293 31.2469 51.1395 30.1197C51.2232 29.263 51.326 28.4081 51.4514 27.5564C51.9889 23.9074 52.8762 20.2734 54.3094 16.8676C55.7065 13.5476 57.6603 10.4791 60.3752 8.08533C63.3501 5.46234 66.9416 3.55409 70.7543 2.47738C74.43 1.43932 78.3503 1.1788 82.1365 1.67984C85.8216 2.16751 89.4277 3.47118 92.2062 6.00052C95.0179 8.56002 97.0477 11.9453 97.976 15.6328C98.2051 16.5429 98.3699 17.4689 98.4549 18.4036C98.5331 19.2636 98.5128 20.1137 98.2364 20.9392C98.036 21.5376 97.6489 22.1514 97.1917 22.4735C96.9093 22.6724 96.7384 22.754 96.4129 22.8272C96.3777 22.8351 96.3424 22.8419 96.3069 22.8486C96.2177 22.8656 96.3757 22.8422 96.2849 22.8533C96.2029 22.8634 96.1198 22.8676 96.0371 22.8686C95.856 22.8707 95.7322 22.8574 95.6051 22.8314C94.8327 22.6735 94.1878 22.1901 93.6355 21.6312C93.16 21.15 92.4179 21.8922 92.8934 22.3733C94.0767 23.5709 95.8223 24.4224 97.4444 23.5515C98.9336 22.7519 99.5279 20.9214 99.5494 19.331C99.5629 18.3262 99.3989 17.2976 99.2042 16.3146C99.0128 15.3484 98.7466 14.3972 98.4115 13.4711C97.7297 11.5871 96.782 9.80062 95.5867 8.19199C94.3917 6.58369 92.9781 5.12227 91.3432 3.95708C89.7411 2.81522 87.9141 1.99798 86.0332 1.43689C82.2323 0.303066 78.1213 0.142676 74.2061 0.684522C70.0913 1.25399 66.092 2.75808 62.6272 5.05114C60.9485 6.16216 59.3537 7.4525 57.9964 8.94311C56.73 10.3339 55.6542 11.8963 54.7507 13.5441C52.8934 16.9313 51.7034 20.6686 50.9351 24.4434C50.5599 26.287 50.2855 28.1521 50.0993 30.0242C49.9869 31.1544 49.917 32.2952 49.6219 33.3969C49.3562 34.389 48.9255 35.3662 48.3798 36.2361C47.9128 36.9806 47.1237 37.4755 46.7458 38.2862C46.2459 39.3588 46.6634 40.4511 47.2948 41.3671C48.4655 43.0651 50.045 44.4423 51.667 45.6949C55.0556 48.3118 58.7519 50.7076 62.9704 51.6973C64.0105 51.9414 65.0728 52.0961 66.1393 52.1575C66.4226 52.1739 66.6641 51.9046 66.6641 51.6327C66.6641 51.3239 66.4224 51.1383 66.1393 51.108C66.3349 51.1289 66.4723 51.2198 66.5299 51.3167C66.5979 51.4313 66.5235 51.4173 66.5476 51.3412C66.5505 51.3318 66.5383 51.2896 66.5352 51.2793C66.504 51.1735 66.5407 51.3809 66.5417 51.3298C66.543 51.272 66.5312 51.2115 66.5282 51.1535C66.5103 50.801 66.5283 50.4459 66.5483 50.0938C66.6097 49.009 66.7283 47.927 66.8506 46.8477C67.1199 44.4707 67.45 42.1014 67.7445 39.7275C67.8262 39.0692 67.8878 38.4222 67.9142 37.7601C67.9466 36.9432 68.0009 36.1269 67.9973 35.309C67.9942 34.5827 68.0066 33.7128 67.6485 33.056C67.2353 32.2981 66.3322 31.9034 65.6562 31.4249C65.2987 31.1719 64.9769 30.8002 64.6896 30.4568C64.3546 30.0566 64.0616 29.6215 63.8059 29.1668C63.2834 28.2378 62.9251 27.188 62.9323 26.1131C62.9394 25.0678 63.3613 24.1136 63.994 23.2954C65.0548 21.9237 66.9705 20.6093 68.7635 21.3458C70.6351 22.1144 71.2403 24.3815 71.3981 26.1991C71.4469 26.7604 71.4639 27.3238 71.4686 27.8871C71.4727 28.3804 72.2106 28.6374 72.4465 28.152C73.3067 26.3815 73.9064 24.4999 74.7455 22.7217C75.0961 21.9788 75.53 21.2058 76.2094 20.7143C76.8453 20.2542 77.6299 20.0317 78.383 20.319L78.0165 19.9525C78.2278 21.3572 79.2223 22.6356 80.5071 23.2309C81.8631 23.8592 83.4443 23.7278 84.694 22.9059C85.3753 22.4577 85.9452 21.8365 86.2826 21.0903C85.9628 21.0485 85.6431 21.0068 85.3234 20.965C85.6965 22.23 86.6206 23.3249 87.8163 23.8897C89.1043 24.4982 90.5533 24.4721 91.824 23.8313C92.5189 23.4809 93.1275 22.9585 93.6355 22.3734C93.8213 22.1595 93.8459 21.8415 93.6355 21.6312C93.4458 21.4414 93.08 21.4163 92.8934 21.6312L92.8934 21.6312Z" fill="#1A202C"/>
               <path d="M83.0075 26.8727C84.0101 26.3729 85.2886 26.6973 85.9844 27.5559C86.1035 27.7028 86.3554 27.6797 86.4792 27.5559C86.6244 27.4107 86.5986 27.2084 86.4792 27.0611C85.5789 25.9502 83.9196 25.6378 82.6543 26.2685C82.4853 26.3527 82.438 26.5918 82.5288 26.7471C82.6295 26.9193 82.8378 26.9572 83.0075 26.8727L83.0075 26.8727Z" fill="#1A202C"/>
               <path d="M89.7216 27.816C90.409 27.3475 91.3075 27.2812 92.0338 27.6618C92.2012 27.7495 92.4141 27.7046 92.5125 27.5363C92.6047 27.3787 92.555 27.1457 92.387 27.0577C91.4445 26.5638 90.2534 26.6087 89.3685 27.2118C89.2125 27.3181 89.1429 27.5194 89.243 27.6905C89.3334 27.8451 89.5648 27.9229 89.7216 27.816Z" fill="#1A202C"/>
               <path d="M81.2505 37.7329C81.6887 38.3091 82.2964 38.733 83.0041 38.9059C83.1816 38.9492 83.3917 38.8494 83.4345 38.6615C83.4756 38.4811 83.3803 38.2776 83.1901 38.2311C83.1188 38.2137 83.0482 38.194 82.9784 38.1711C82.9397 38.1583 82.9013 38.1447 82.8632 38.1303C82.8479 38.1245 82.8328 38.1184 82.8176 38.1125C82.7563 38.0888 82.8621 38.133 82.8223 38.1147C82.6848 38.0514 82.5514 37.9828 82.4243 37.9003C82.3936 37.8803 82.3632 37.8597 82.3332 37.8386C82.3199 37.8292 82.3067 37.8196 82.2935 37.81C82.2551 37.7818 82.2702 37.7851 82.2961 37.813C82.2477 37.7608 82.1811 37.7192 82.1283 37.6707C82.0713 37.6183 82.0165 37.5634 81.9642 37.5063C81.9394 37.4793 81.9151 37.4518 81.8915 37.4237C81.8741 37.403 81.7978 37.3049 81.8547 37.3798C81.7972 37.3042 81.7411 37.2453 81.6456 37.219C81.5619 37.196 81.4504 37.2064 81.3761 37.2543C81.2326 37.3468 81.1321 37.5772 81.2505 37.733V37.7329Z" fill="#1A202C"/>
               <path d="M83.1519 29.7626C83.2468 29.7651 83.3415 29.7702 83.4359 29.7795C83.4713 29.7829 83.5067 29.7868 83.542 29.7912C83.4794 29.7833 83.6128 29.8028 83.6249 29.8049C83.7944 29.8341 83.9619 29.8746 84.126 29.9259C84.2109 29.9525 84.2949 29.9818 84.3778 30.0141C84.3775 30.014 84.4791 30.0555 84.4259 30.0329C84.4695 30.0514 84.5126 30.0713 84.5554 30.0917C84.7162 30.1682 84.8708 30.2563 85.0198 30.3537C85.1732 30.4541 85.4132 30.3895 85.4984 30.2282C85.5908 30.0535 85.5367 29.8567 85.3729 29.7496C84.7139 29.3185 83.9382 29.0837 83.1519 29.0628C82.9688 29.058 82.7937 29.2272 82.802 29.4127C82.8107 29.6064 82.9557 29.7574 83.1519 29.7625V29.7626Z" fill="#1A202C"/>
               <path d="M89.958 30.9864C90.0771 30.9577 90.2017 30.9257 90.3241 30.9157C90.2352 30.9229 90.332 30.9151 90.3449 30.9136C90.3734 30.9104 90.402 30.9076 90.4305 30.905C90.4924 30.8994 90.5545 30.8954 90.6166 30.8929C90.736 30.888 90.8557 30.8886 90.975 30.8949C91.0323 30.8979 91.0896 30.9022 91.1467 30.9078C91.1752 30.9106 91.2037 30.9141 91.2322 30.9172C91.2727 30.9223 91.2701 30.9219 91.2245 30.916C91.2434 30.9187 91.2623 30.9216 91.2812 30.9246C91.3774 30.9396 91.4635 30.9404 91.5508 30.8893C91.6234 30.8469 91.6926 30.7637 91.7116 30.6802C91.7497 30.5129 91.6606 30.28 91.4672 30.2499C90.8997 30.1615 90.3318 30.1769 89.772 30.3117C89.594 30.3545 89.4708 30.5663 89.5277 30.742C89.5876 30.9272 89.7673 31.0323 89.958 30.9864Z" fill="#1A202C"/>
               <path d="M165.359 77.6008C166.64 78.0771 167.921 78.5535 169.202 79.0298C169.468 79.1286 169.777 78.9196 169.848 78.6633C169.928 78.3696 169.748 78.1169 169.481 78.0177C168.2 77.5414 166.919 77.065 165.638 76.5887C165.372 76.4899 165.062 76.6989 164.992 76.9552C164.911 77.2489 165.092 77.5016 165.359 77.6008Z" fill="#FEBD2F"/>
               <path d="M162.923 80.6627C163.236 81.3462 163.549 82.0297 163.862 82.7132C163.976 82.9635 164.358 83.0445 164.58 82.9014C164.838 82.7349 164.89 82.4513 164.768 82.1834C164.455 81.4999 164.142 80.8164 163.829 80.1329C163.714 79.8826 163.333 79.8016 163.111 79.9447C162.852 80.1112 162.8 80.3948 162.923 80.6627Z" fill="#FEBD2F"/>
               <path d="M159.338 82.0197C159.214 83.152 159.09 84.2843 158.966 85.4166C158.936 85.6904 159.229 85.9531 159.491 85.9414C159.801 85.9275 159.983 85.7099 160.016 85.4166C160.14 84.2843 160.264 83.152 160.388 82.0197C160.418 81.7458 160.125 81.4832 159.863 81.4949C159.553 81.5088 159.371 81.7263 159.338 82.0197Z" fill="#FEBD2F"/>
               <path d="M154.502 30.8463C155.131 31.5815 155.932 32.1296 156.821 32.4998C156.938 32.5483 157.122 32.5075 157.226 32.4469C157.335 32.3832 157.438 32.2583 157.467 32.1332C157.498 31.9989 157.491 31.8481 157.414 31.7289C157.335 31.6062 157.234 31.5433 157.1 31.4877C157.15 31.5084 157.183 31.5233 157.114 31.4929C157.093 31.4836 157.072 31.4742 157.05 31.4646C157.003 31.443 156.956 31.4208 156.909 31.3979C156.815 31.3521 156.723 31.3035 156.632 31.2524C156.446 31.1474 156.265 31.0314 156.092 30.9054C156.06 30.8824 155.937 30.7763 156.045 30.8724C156.006 30.8379 155.963 30.8074 155.923 30.7743C155.843 30.7079 155.765 30.6391 155.688 30.5682C155.531 30.4223 155.383 30.267 155.244 30.1041C155.065 29.8947 154.683 29.9064 154.502 30.1041C154.297 30.327 154.311 30.6229 154.502 30.8463L154.502 30.8463Z" fill="#FEBD2F"/>
               <path d="M160.247 27.5789C160.38 28.2736 160.513 28.9682 160.647 29.6629C160.698 29.9331 161.037 30.1119 161.292 30.0294C161.58 29.9362 161.714 29.6733 161.659 29.3839C161.525 28.6892 161.392 27.9946 161.259 27.2999C161.207 27.0297 160.868 26.8509 160.613 26.9333C160.325 27.0266 160.191 27.2894 160.247 27.5789Z" fill="#FEBD2F"/>
               <path d="M165.891 27.8274C165.341 28.4626 164.919 29.1733 164.617 29.957C164.571 30.0768 164.608 30.255 164.67 30.3614C164.734 30.4703 164.859 30.5741 164.984 30.6026C165.284 30.671 165.524 30.511 165.629 30.2361C165.645 30.1947 165.661 30.1535 165.678 30.1125C165.686 30.092 165.696 30.0717 165.703 30.0511C165.695 30.0742 165.661 30.1488 165.69 30.0848C165.726 30.004 165.762 29.9233 165.801 29.8437C165.881 29.6796 165.969 29.519 166.063 29.3623C166.154 29.2104 166.251 29.0624 166.355 28.9187C166.38 28.8827 166.407 28.8471 166.433 28.8117C166.443 28.7989 166.491 28.7362 166.443 28.7988C166.394 28.8615 166.443 28.7991 166.453 28.7865C166.511 28.7129 166.572 28.6407 166.633 28.5695C166.813 28.3622 166.852 28.0285 166.633 27.8274C166.436 27.6464 166.083 27.6057 165.891 27.8274L165.891 27.8274Z" fill="#FEBD2F"/>
               <path d="M42.162 73.6649C43.5739 71.7225 43.6305 68.9164 42.324 66.9072C42.173 67.1704 42.0219 67.4336 41.8709 67.6969C44.5693 67.3601 46.775 65.4871 47.8694 63.0357C48.1704 62.3615 48.3987 61.6629 48.5293 60.9357C48.3142 61.0578 48.099 61.18 47.8838 61.3022C51.9318 62.4912 56.5371 62.0042 59.9271 59.3718C60.8853 58.6277 61.7032 57.731 62.3824 56.7267C62.0626 56.6849 61.7429 56.6431 61.4232 56.6013C62.3942 59.7979 65.1986 62.2946 68.4352 63.049C69.3408 63.2601 70.2799 63.3384 71.2068 63.2574C71.4891 63.2328 71.7316 63.0339 71.7316 62.7326C71.7316 62.4679 71.4907 62.1831 71.2068 62.2079C68.2536 62.4658 65.2461 61.0032 63.5396 58.5685C63.0532 57.8745 62.6799 57.1275 62.4353 56.3223C62.2988 55.8731 61.7272 55.8255 61.4761 56.1969C60.3674 57.8365 58.8234 59.0964 57.0184 59.8954C55.2704 60.6691 53.318 60.9556 51.3998 60.8543C50.2984 60.7962 49.234 60.6048 48.1628 60.2901C47.9089 60.2156 47.5669 60.3802 47.5172 60.6566C47.1125 62.9095 45.7653 65.0335 43.6932 66.0843C43.1364 66.3667 42.4908 66.5699 41.8709 66.6473C41.5065 66.6928 41.1774 67.0674 41.4177 67.437C42.5396 69.1623 42.4631 71.4743 41.2557 73.1351C41.089 73.3645 41.2166 73.7201 41.444 73.8531C41.7093 74.0083 41.9949 73.8948 42.162 73.6649V73.6649Z" fill="#FC6B55"/>
               <rect x="104.713" y="127.812" width="8.86312" height="4.54819" rx="1.20533" fill="white"/>
               <path d="M149.846 133.584V128.699C149.846 128.023 148.797 128.022 148.797 128.699V133.584C148.797 134.26 149.846 134.261 149.846 133.584Z" fill="white"/>
               <path d="M151.729 129.896C151.03 129.167 150.33 128.437 149.631 127.707C149.438 127.506 149.082 127.505 148.889 127.707C148.19 128.437 147.491 129.167 146.791 129.896C146.324 130.384 147.065 131.127 147.534 130.638C148.233 129.909 148.932 129.179 149.631 128.449H148.889C149.588 129.179 150.287 129.909 150.987 130.638C151.455 131.127 152.196 130.384 151.729 129.896Z" fill="white"/>
               <path d="M156.846 133.584V128.699C156.846 128.023 155.797 128.022 155.797 128.699V133.584C155.797 134.26 156.846 134.261 156.846 133.584Z" fill="white"/>
               <path d="M158.73 129.896C158.031 129.167 157.331 128.437 156.632 127.707C156.439 127.506 156.083 127.505 155.89 127.707C155.191 128.437 154.492 129.167 153.792 129.896C153.325 130.384 154.066 131.127 154.535 130.638C155.234 129.909 155.933 129.179 156.632 128.449H155.89C156.589 129.179 157.288 129.909 157.988 130.638C158.456 131.127 159.197 130.384 158.73 129.896Z" fill="white"/>
               </svg>