 <svg width="261" height="228" viewBox="0 0 261 228" fill="none" xmlns="http://www.w3.org/2000/svg">
                <path d="M48.3726 52.1028L138.928 165.572L171.969 145.139L212.618 36.8867L48.3726 52.1028Z" fill="#FC6B55"/>
                <path d="M0.985107 51.8854L39.5466 165.572H138.842L177.403 51.8854H0.985107Z" fill="#FEBD2F"/>
                <path d="M176.534 52.7549H2.2002L38.1755 36.9954H212.509L176.534 52.7549Z" fill="#333333"/>
                <path d="M172.995 64.8107L191.911 18.7801C193.139 16.2182 195.728 14.5881 198.57 14.5881H232.914C235.793 14.5881 238.127 16.9221 238.127 19.8011C238.127 22.6946 235.771 25.0344 232.877 25.0139L206.118 24.8242C203.162 24.8032 200.478 26.5471 199.297 29.2569L181.888 71.8733" fill="#FC6B55"/>
                <path d="M195.229 50.6856L214.145 4.65498C215.373 2.09305 217.962 0.463013 220.803 0.463013H255.148C258.027 0.463013 260.361 2.79693 260.361 5.67595C260.361 8.56943 258.004 10.9093 255.111 10.8888L228.352 10.699C225.396 10.6781 222.712 12.422 221.531 15.1318L204.122 57.7482" fill="#FC6B55"/>
                <path d="M138.114 165.443C137.103 168.825 136.092 172.207 135.081 175.59C133.322 181.476 131.563 187.362 129.804 193.249C129.22 195.203 128.636 197.157 128.052 199.111C127.433 201.18 126.678 203.155 125.329 204.887C122.636 208.344 118.451 210.367 114.078 210.389C113.461 210.392 112.843 210.389 112.226 210.389H49.9676C49.0216 210.389 48.0755 210.388 47.1295 210.389C46.6713 210.39 46.1968 210.21 46.2235 209.647C46.2493 209.105 47.1182 208.755 47.5099 208.51C51.8319 205.805 56.146 203.087 60.4763 200.395C61.8338 199.552 63.2824 199.249 64.8457 199.249H142.325C144.73 199.249 147.059 198.816 149.261 197.827C153.477 195.932 156.408 192.301 157.846 187.971C158.797 185.108 159.831 182.269 160.823 179.419C162.859 173.571 164.895 167.723 166.931 161.875C168.591 157.106 170.251 152.337 171.911 147.568C172.172 146.818 172.433 146.069 172.694 145.32C173.022 144.378 171.528 143.974 171.203 144.909C170.199 147.792 169.195 150.676 168.192 153.559C166.14 159.452 164.089 165.345 162.037 171.238C160.381 175.995 158.725 180.752 157.069 185.508C156.714 186.529 156.392 187.572 156.009 188.583C154.409 192.809 150.731 196.068 146.376 197.227C143.786 197.916 140.959 197.703 138.297 197.703H71.7045C69.2718 197.703 66.8389 197.695 64.4061 197.703C63.1859 197.707 62.0022 197.935 60.8821 198.425C60.1492 198.746 59.4856 199.192 58.8096 199.615C56.4006 201.123 53.9917 202.63 51.5827 204.138C49.6746 205.332 47.7504 206.504 45.8569 207.721C44.5717 208.547 44.2207 210.361 45.4818 211.415C45.974 211.827 46.5638 211.935 47.1795 211.935H107.973C110.381 211.935 112.841 212.077 115.246 211.89C119.843 211.534 124.064 209.179 126.806 205.479C128.14 203.678 128.909 201.642 129.543 199.522C130.995 194.661 132.448 189.799 133.901 184.938C135.527 179.496 137.154 174.054 138.78 168.613C139.055 167.693 139.33 166.773 139.604 165.854C139.89 164.898 138.398 164.49 138.114 165.443L138.114 165.443Z" fill="#333333"/>
                <circle cx="116.625" cy="221.102" r="6.4086" fill="#333333"/>
                <circle cx="60.1247" cy="221.102" r="6.4086" fill="#333333"/>
                <circle cx="141.213" cy="208.285" r="6.4086" fill="#333333"/>
                <circle cx="84.7128" cy="208.285" r="6.4086" fill="#333333"/>
                <path d="M40.3578 83.7486C45.7276 92.0221 51.2356 100.206 56.8819 108.293C62.5282 116.38 68.3116 124.372 74.2287 132.263C77.5728 136.723 80.9608 141.15 84.3878 145.546C84.7731 146.041 85.6232 145.951 86.0276 145.546C86.5157 145.058 86.414 144.402 86.0276 143.906C80.0016 136.176 74.1083 128.341 68.3477 120.411C62.5953 112.491 56.9762 104.475 51.4936 96.366C48.4057 91.799 45.3616 87.2024 42.3602 82.5781C41.5506 81.3306 39.5419 82.4918 40.3577 83.7487L40.3578 83.7486Z" fill="white"/>
                <path d="M62.7647 83.4873C68.6273 90.9155 74.3461 98.4566 79.9183 106.105C85.5266 113.803 90.9867 121.609 96.2945 129.517C99.271 133.952 102.199 138.42 105.08 142.917C105.882 144.17 107.89 143.009 107.082 141.747C101.925 133.695 96.6148 125.741 91.1514 117.894C85.6881 110.047 80.073 102.306 74.3106 94.6753C71.0547 90.364 67.7517 86.0883 64.4046 81.8474C64.0163 81.3554 63.171 81.4411 62.7647 81.8474C62.2789 82.3333 62.3754 82.994 62.7647 83.4873H62.7647Z" fill="white"/>
                <path d="M54.126 122.758C57.7421 120.231 61.4271 117.801 65.1071 115.369C70.5378 111.78 75.9899 108.222 81.4506 104.679C87.547 100.722 93.6556 96.785 99.7759 92.8658C105.414 89.2553 111.062 85.6588 116.729 82.0938C120.728 79.578 124.73 77.0621 128.784 74.6352C129.111 74.4396 129.438 74.245 129.766 74.0515C131.05 73.2937 129.885 71.2881 128.595 72.049C124.796 74.2906 121.059 76.6402 117.322 78.9837C111.807 82.4422 106.313 85.9348 100.828 89.4409C94.7051 93.3552 88.5939 97.2888 82.4945 101.24C76.8753 104.881 71.2651 108.535 65.6746 112.22C61.7294 114.82 57.7834 117.422 53.8938 120.105C53.5804 120.321 53.2676 120.538 52.9555 120.756C52.4428 121.114 52.2052 121.771 52.5395 122.343C52.8363 122.85 53.6101 123.119 54.126 122.758H54.126Z" fill="white"/>
                <path d="M62.5179 136.745C66.4621 134.247 70.3936 131.73 74.3228 129.209C79.4755 125.903 84.6221 122.587 89.7656 119.267C95.3243 115.678 100.879 112.084 106.43 108.483C111.641 105.103 116.848 101.718 122.05 98.3231C126.154 95.6452 130.255 92.9634 134.344 90.2627C134.736 90.0036 135.128 89.7441 135.521 89.4845C136.759 88.6641 135.599 86.6548 134.35 87.482C130.458 90.0597 126.551 92.6163 122.643 95.1694C117.517 98.5174 112.385 101.856 107.25 105.189C101.701 108.791 96.1468 112.387 90.589 115.977C85.3716 119.347 80.1509 122.712 74.9246 126.068C70.8014 128.716 66.6758 131.361 62.5387 133.987C62.1417 134.239 61.7446 134.491 61.3473 134.742C60.0897 135.539 61.2519 137.547 62.5178 136.745L62.5179 136.745Z" fill="white"/>
                <path d="M160.684 64.8595C162.546 64.8684 164.409 64.8772 166.272 64.8861L165.112 63.7265C164.783 66.8084 163.852 69.8291 162.422 72.5761C162.133 73.1314 162.279 73.8357 162.838 74.1626C163.359 74.4675 164.134 74.3041 164.424 73.7466C166.056 70.6125 167.056 67.2373 167.431 63.7266C167.498 63.1003 166.846 62.5697 166.272 62.567C164.409 62.5581 162.546 62.5493 160.684 62.5404C159.191 62.5333 159.189 64.8525 160.684 64.8596V64.8595Z" fill="white"/>
                <path d="M14.0268 75.3883C13.9153 75.195 13.81 74.9986 13.7138 74.7973C13.6996 74.7678 13.5579 74.4473 13.6162 74.5869C13.6746 74.7267 13.5454 74.4006 13.5341 74.37C13.3859 73.9662 13.2694 73.5509 13.1853 73.1291C13.1635 73.0196 13.1454 72.9097 13.1264 72.7998C13.0719 72.4853 13.1475 73.0469 13.1168 72.7292C13.0953 72.5069 13.0764 72.2853 13.0696 72.062C13.0629 71.8391 13.0651 71.616 13.0768 71.3933C13.0817 71.2979 13.0884 71.2025 13.0966 71.1073C13.1014 71.0517 13.1543 70.6364 13.111 70.9411C12.6355 71.211 12.16 71.481 11.6845 71.751C13.2114 72.3822 15.027 72.1995 16.4475 71.3834C16.9737 71.0811 17.2011 70.3205 16.8635 69.7968C16.5211 69.2657 15.8399 69.0574 15.277 69.3809C15.1548 69.451 15.0082 69.5558 14.8714 69.5903C15.1371 69.5233 14.8597 69.5906 14.8092 69.6082C14.7517 69.6281 14.6938 69.647 14.6355 69.6645C14.4898 69.7084 14.3417 69.7446 14.1922 69.7731C14.1473 69.7818 14.1023 69.7896 14.0571 69.7964C13.9697 69.8101 13.997 69.8063 14.139 69.7851C14.0761 69.8106 13.9775 69.7996 13.9113 69.8032C13.7591 69.8115 13.6068 69.8119 13.4546 69.8046C13.3785 69.8009 13.3028 69.7941 13.2269 69.7879C13.0004 69.7692 13.36 69.8205 13.2186 69.7854C12.9043 69.7075 12.6021 69.6391 12.3011 69.5147C11.771 69.2955 10.9552 69.7571 10.8746 70.3246C10.5675 72.4878 10.9263 74.6546 12.0243 76.5588C12.3274 77.0845 13.0865 77.3128 13.6108 76.9748C14.1412 76.6328 14.3511 75.9507 14.0268 75.3883L14.0268 75.3883Z" fill="white"/>
                <path d="M123.422 89.9448C128.012 95.9444 132.601 101.944 137.191 107.944C137.571 108.44 138.19 108.704 138.778 108.36C139.266 108.074 139.576 107.274 139.194 106.773C134.604 100.773 130.014 94.7738 125.424 88.7742C125.045 88.2776 124.426 88.0142 123.838 88.3582C123.349 88.6442 123.039 89.4443 123.422 89.9448Z" fill="white"/>
                <path d="M131.924 105.26C134.714 102.656 137.505 100.052 140.295 97.4471C140.753 97.0197 140.727 96.2393 140.295 95.8072C139.838 95.3507 139.114 95.3786 138.655 95.8072C135.865 98.4117 133.074 101.016 130.284 103.62C129.826 104.048 129.852 104.828 130.284 105.26C130.74 105.717 131.464 105.689 131.924 105.26Z" fill="white"/>
                <path d="M47.5695 18.1433C48.1019 19.3413 48.6343 20.5393 49.1668 21.7372C49.2773 21.9858 49.6093 22.2012 49.8598 22.2701C50.1374 22.3466 50.507 22.312 50.7533 22.1532C51.0009 21.9936 51.2189 21.7559 51.2862 21.4602C51.3597 21.1375 51.3028 20.867 51.1693 20.5667C50.6369 19.3687 50.1045 18.1707 49.572 16.9727C49.4615 16.7242 49.1294 16.5088 48.879 16.4398C48.6014 16.3634 48.2318 16.3979 47.9855 16.5568C47.7379 16.7164 47.5199 16.9541 47.4526 17.2498C47.3791 17.5725 47.436 17.843 47.5695 18.1433Z" fill="#FC6B55"/>
                <path d="M69.0162 14.0551C68.6224 15.8578 68.4619 17.7122 68.5754 19.5546C68.6127 20.1589 69.0821 20.7434 69.735 20.7142C70.3313 20.6875 70.9346 20.203 70.8946 19.5546C70.8421 18.7019 70.8443 17.8471 70.9075 16.995C70.9236 16.7779 70.9434 16.5611 70.9672 16.3447C70.9781 16.2454 70.9842 16.1435 71.0025 16.0454C70.964 16.2525 71.002 16.0474 71.0157 15.9556C71.0796 15.5248 71.1596 15.097 71.2526 14.6716C71.3817 14.0804 71.0757 13.3893 70.4427 13.2451C69.8572 13.1118 69.1547 13.4213 69.0162 14.055V14.0551Z" fill="#FC6B55"/>
                <path d="M25.1017 28.26L27.4977 28.6593C27.6518 28.7076 27.8059 28.7145 27.9601 28.68C28.1144 28.673 28.2581 28.6271 28.3912 28.5424C28.6318 28.4016 28.8612 28.1258 28.9241 27.8494C28.9918 27.5525 28.9771 27.2193 28.8072 26.9558C28.6533 26.7171 28.4064 26.4717 28.1142 26.4229L25.7182 26.0236C25.5641 25.9753 25.41 25.9684 25.2558 26.0029C25.1015 26.0099 24.9578 26.0558 24.8247 26.1405C24.5842 26.2813 24.3547 26.5571 24.2918 26.8335C24.2242 27.1304 24.2388 27.4636 24.4087 27.7271C24.5626 27.9658 24.8095 28.2112 25.1017 28.26Z" fill="#FC6B55"/>
                <path d="M145.532 26.3221C148.382 25.2465 151.384 24.6721 154.433 24.6814C155.784 24.6856 157.163 24.7578 158.483 25.0668C159.569 25.3209 160.775 25.7614 161.468 26.6932C161.974 27.3729 162.186 28.3568 161.9 29.1156C161.84 29.2767 161.526 29.8868 161.223 29.8505C161.002 29.824 160.949 29.3612 160.967 29.1776C161.083 27.9828 162.523 27.4562 163.494 27.2004C164.934 26.8206 166.428 26.5867 167.909 26.4366C171.432 26.0795 174.997 26.2371 178.469 26.9312C179.083 27.0538 179.721 26.7555 179.896 26.1213C180.053 25.5502 179.703 24.8182 179.086 24.6948C175.227 23.9236 171.266 23.7208 167.355 24.178C165.5 24.395 163.508 24.6229 161.766 25.3335C160.124 26.0032 158.66 27.4019 158.648 29.291C158.637 31.1214 160.356 32.7318 162.181 31.962C163.664 31.3368 164.443 29.667 164.33 28.1135C164.214 26.5043 163.424 25.1325 162.141 24.1708C160.782 23.1525 159.098 22.762 157.445 22.5512C153.243 22.0155 148.871 22.593 144.916 24.0858C144.33 24.3068 143.929 24.8685 144.106 25.5122C144.26 26.0739 144.943 26.5444 145.532 26.3221H145.532Z" fill="#FC6B55"/>
                </svg>